<?xml version="1.0" encoding="iso-8859-1"?>
<!-- Uploaded to: SVG Repo, www.svgrepo.com, Generator: SVG Repo Mixer Tools -->
<svg fill="#000000" height="200px" width="400px" version="1.1" id="Layer_1" xmlns="http://www.w3.org/2000/svg" xmlns:xlink="http://www.w3.org/1999/xlink" 
	 viewBox="0 0 512.001 512.001" xml:space="preserve">
<g>
	<g>
		<path d="M477.701,223.41c-23.131-23.133-53.617-34.529-84-34.205l36.719-36.719c6.528-6.527,6.528-17.112,0-23.64
			c-6.527-6.527-17.112-6.527-23.64,0L322.028,213.6c-2.426-5.067-5.718-9.742-9.809-13.832c-4.09-4.091-8.765-7.383-13.832-9.809
			l84.753-84.752c6.528-6.527,6.528-17.112,0-23.64c-6.527-6.529-17.112-6.527-23.64,0l-36.719,36.719
			c0.324-30.383-11.072-60.869-34.202-84c-22.101-22.101-51.485-34.273-82.741-34.273s-60.641,12.172-82.741,34.273
			c-38.242,38.242-44.422,96.584-18.553,141.331c-19.107,1.531-37.784,9.567-52.367,24.15L4.896,247.048
			c-6.528,6.527-6.528,17.112,0,23.64l47.28,47.281c21.164,21.164,51.873,29.318,80.847,21.559
			c1.853,9.431,6.422,18.429,13.714,25.721c7.131,7.132,16.033,11.848,25.713,13.745c-7.463,27.913-0.29,58.959,21.568,80.817
			l47.28,47.28c6.526,6.527,17.111,6.529,23.64,0l47.281-47.28c14.583-14.583,22.62-33.261,24.15-52.367
			c44.811,25.904,103.127,19.649,141.331-18.554C523.432,343.162,523.437,269.142,477.701,223.41z M146.739,57.926
			c32.662-32.663,85.533-32.669,118.2,0c32.663,32.663,32.669,85.533,0,118.201c-5.695,5.695-53.415,53.415-59.101,59.101
			c-5.685-5.685-53.407-53.407-59.101-59.101C114.15,143.538,114.15,90.515,146.739,57.926z M146.727,294.341
			c-19.555,19.54-51.36,19.539-70.91-0.011l-35.461-35.461l35.461-35.461c19.549-19.549,51.355-19.552,70.91-0.01l35.471,35.471
			l-35.461,35.461C146.734,294.333,146.731,294.336,146.727,294.341z M194.018,341.608c-6.533,6.534-17.105,6.535-23.639,0.001
			c-6.517-6.517-6.518-17.119-0.004-23.637c0.001-0.001,0.002-0.002,0.003-0.003c18.928-18.928,75.63-75.63,94.562-94.563
			c6.52-6.517,17.12-6.516,23.639,0.001c6.517,6.517,6.517,17.122,0.001,23.639L194.018,341.608z M288.58,436.171l-35.461,35.459
			l-35.461-35.459c-19.552-19.553-19.552-51.369,0-70.922l35.461-35.46l35.485,35.485
			C308.131,384.83,308.124,416.625,288.58,436.171z M454.061,365.249c-32.588,32.585-85.614,32.585-118.201,0
			c-33.04-33.04-8.058-8.059-59.101-59.101l59.101-59.101c32.663-32.663,85.533-32.669,118.201,0
			C486.725,279.712,486.73,332.582,454.061,365.249z"/>
	</g>
</g>
<g>
	<g>
		<path d="M430.421,270.688c-19.553-19.552-51.368-19.552-70.92,0c-19.553,19.553-19.553,51.368,0,70.921s51.367,19.552,70.92,0
			C449.975,322.056,449.975,290.242,430.421,270.688z M406.78,317.969c-6.519,6.517-17.121,6.517-23.64,0
			c-6.518-6.518-6.518-17.123,0-23.641c6.534-6.534,17.106-6.534,23.64,0C413.298,300.845,413.298,311.451,406.78,317.969z"/>
	</g>
</g>
<g>
	<g>
		<path d="M241.299,81.566c-19.599-19.598-51.321-19.602-70.921,0c-19.552,19.552-19.552,51.368,0,70.92
			c19.598,19.6,51.32,19.601,70.921,0C260.851,132.934,260.851,101.118,241.299,81.566z M217.658,128.847
			c-6.534,6.534-17.105,6.534-23.64,0c-6.533-6.534-6.533-17.107,0-23.64c6.535-6.534,17.106-6.534,23.64,0
			C224.189,111.739,224.191,122.313,217.658,128.847z"/>
	</g>
</g>
<g>
	<g>
		<circle cx="253.117" cy="400.709" r="16.716"/>
	</g>
</g>
<g>
	<g>
		<circle cx="111.275" cy="258.867" r="16.716"/>
	</g>
</g>
</svg>